<?xml version="1.0" encoding="UTF-8" standalone="no"?>
<!DOCTYPE svg PUBLIC "-//W3C//DTD SVG 1.1//EN" "http://www.w3.org/Graphics/SVG/1.1/DTD/svg11.dtd">
<svg version="1.1" xmlns="http://www.w3.org/2000/svg" xmlns:xlink="http://www.w3.org/1999/xlink" preserveAspectRatio="xMidYMid meet" viewBox="0 0 640 640" width="640" height="640"><defs><path d="M330 110L330 150L250 150L250 210L290 210L290 170L330 170L330 310L290 310L290 250L250 250L250 310L210 310L210 270L210 230L210 190L210 150L209.07 110L330 110Z" id="bSnuWRhCf"></path><path d="M290 170L330 170L330 210L290 210L290 170Z" id="f16NfWpWPv"></path><path d="M290 210.01L330 210.01L330 250.01L290 250.01L290 210.01Z" id="b3stVAw3ip"></path></defs><g><g><g><use xlink:href="#bSnuWRhCf" opacity="1" fill="#016682" fill-opacity="1"></use><g><use xlink:href="#bSnuWRhCf" opacity="1" fill-opacity="0" stroke="#016682" stroke-width="1" stroke-opacity="1"></use></g></g><g><use xlink:href="#f16NfWpWPv" opacity="1" fill="#b9d7df" fill-opacity="1"></use><g><use xlink:href="#f16NfWpWPv" opacity="1" fill-opacity="0" stroke="#b9d7df" stroke-width="1" stroke-opacity="1"></use></g></g><g><use xlink:href="#b3stVAw3ip" opacity="1" fill="#b9d7df" fill-opacity="1"></use><g><use xlink:href="#b3stVAw3ip" opacity="1" fill-opacity="0" stroke="#b9d7df" stroke-width="1" stroke-opacity="1"></use></g></g></g></g></svg>