<svg width="200" height="200" xmlns="http://www.w3.org/2000/svg">

 <g>
  <title>background</title>
  <rect fill="none" id="canvas_background" height="402" width="582" y="-1" x="-1"/>
 </g>
 <g>
  <title>Layer 1</title>
  <path id="svg_2" fill="#5E889E" d="m137.635,28.744l-11.591,0c-1.513,0 -2.539,0.28 -3.088,0.852c-0.543,0.567 -0.816,1.63 -0.816,3.202l0,9.026c0,1.569 0.273,2.635 0.816,3.202c0.549,0.567 1.575,0.852 3.088,0.852l11.591,0c1.522,0 2.558,-0.285 3.103,-0.852c0.548,-0.567 0.819,-1.633 0.819,-3.202l0,-9.026c0,-1.571 -0.271,-2.635 -0.819,-3.202c-0.546,-0.572 -1.581,-0.852 -3.103,-0.852zm0.323,14.051l-12.236,0l0,-11.136l12.236,0l0,11.136z"/>
  <path id="svg_3" fill="#5E889E" d="m111.976,28.744l-11.59,0c-1.515,0 -2.545,0.28 -3.09,0.852c-0.545,0.567 -0.821,1.63 -0.821,3.202l0,9.026c0,1.569 0.276,2.635 0.821,3.202s1.576,0.852 3.09,0.852l11.59,0c1.521,0 2.557,-0.285 3.104,-0.852c0.545,-0.567 0.818,-1.633 0.818,-3.202l0,-9.026c0,-1.571 -0.273,-2.635 -0.818,-3.202c-0.548,-0.572 -1.583,-0.852 -3.104,-0.852zm0.322,14.051l-12.239,0l0,-11.136l12.239,0l0,11.136z"/>
  <path id="svg_4" fill="#016682" d="m180.578641,0l-160.353,0c-6.234,0 -11.333,5.099 -11.333,11.33l0,177.342c0,6.228 5.099,11.328 11.333,11.328l160.353,0c6.23,0 11.33,-5.1 11.33,-11.328l0,-177.342c0,-6.231 -5.1,-11.33 -11.33,-11.33zm-127.599,177.663c0,2.941 -2.408,5.349 -5.351,5.349l-16.399,0c-2.941,0 -5.351,-2.407 -5.351,-5.349l0,-16.396c0,-2.945 2.41,-5.354 5.351,-5.354l16.399,0c2.943,0 5.351,2.408 5.351,5.354l0,16.396zm0,-40.645c0,2.941 -2.408,5.345 -5.351,5.345l-16.399,0c-2.941,0 -5.351,-2.403 -5.351,-5.345l0,-16.401c0,-2.941 2.41,-5.349 5.351,-5.349l16.399,0c2.943,0 5.351,2.407 5.351,5.349l0,16.401zm0,-40.647c0,2.941 -2.408,5.346 -5.351,5.346l-16.399,0c-2.941,0 -5.351,-2.405 -5.351,-5.346l0,-16.401c0,-2.941 2.41,-5.349 5.351,-5.349l16.399,0c2.943,0 5.351,2.408 5.351,5.349l0,16.401zm40.645,81.292c0,2.941 -2.403,5.349 -5.347,5.349l-16.4,0c-2.941,0 -5.347,-2.407 -5.347,-5.349l0,-16.396c0,-2.945 2.405,-5.354 5.347,-5.354l16.401,0c2.944,0 5.347,2.408 5.347,5.354l0,16.396l-0.001,0zm0,-40.645c0,2.941 -2.403,5.345 -5.347,5.345l-16.4,0c-2.941,0 -5.347,-2.403 -5.347,-5.345l0,-16.401c0,-2.941 2.405,-5.349 5.347,-5.349l16.401,0c2.944,0 5.347,2.407 5.347,5.349l0,16.401l-0.001,0zm0,-40.647c0,2.941 -2.403,5.346 -5.347,5.346l-16.4,0c-2.941,0 -5.347,-2.405 -5.347,-5.346l0,-16.401c0,-2.941 2.405,-5.349 5.347,-5.349l16.401,0c2.944,0 5.347,2.408 5.347,5.349l0,16.401l-0.001,0zm40.648,81.292c0,2.941 -2.405,5.349 -5.347,5.349l-16.403,0c-2.941,0 -5.347,-2.407 -5.347,-5.349l0,-16.396c0,-2.945 2.405,-5.354 5.347,-5.354l16.403,0c2.941,0 5.347,2.408 5.347,5.354l0,16.396zm0,-40.645c0,2.941 -2.405,5.345 -5.347,5.345l-16.403,0c-2.941,0 -5.347,-2.403 -5.347,-5.345l0,-16.401c0,-2.941 2.405,-5.349 5.347,-5.349l16.403,0c2.941,0 5.347,2.407 5.347,5.349l0,16.401zm0,-40.647c0,2.941 -2.405,5.346 -5.347,5.346l-16.403,0c-2.941,0 -5.347,-2.405 -5.347,-5.346l0,-16.401c0,-2.941 2.405,-5.349 5.347,-5.349l16.403,0c2.941,0 5.347,2.408 5.347,5.349l0,16.401zm40.647,81.292c0,2.941 -2.405,5.349 -5.35,5.349l-16.398,0c-2.943,0 -5.349,-2.407 -5.349,-5.349l0,-57.047c0,-2.941 2.405,-5.349 5.349,-5.349l16.398,0c2.944,0 5.35,2.407 5.35,5.349l0,57.047zm0,-81.292c0,2.941 -2.405,5.346 -5.35,5.346l-16.398,0c-2.943,0 -5.349,-2.405 -5.349,-5.346l0,-16.401c0,-2.941 2.405,-5.349 5.349,-5.349l16.398,0c2.944,0 5.35,2.408 5.35,5.349l0,16.401zm0,-44.082c0,2.939 -2.405,5.345 -5.35,5.345l-138.34,0c-2.941,0 -5.351,-2.405 -5.351,-5.345l0,-29.953c0,-2.941 2.41,-5.349 5.351,-5.349l138.34,0c2.944,0 5.35,2.407 5.35,5.349l0,29.953z"/>
  <path id="svg_5" fill="#5E889E" d="m163.295,28.744l-11.59,0c-1.513,0 -2.541,0.28 -3.089,0.852c-0.545,0.567 -0.818,1.63 -0.818,3.202l0,9.026c0,1.569 0.273,2.635 0.818,3.202c0.548,0.567 1.576,0.852 3.089,0.852l11.59,0c1.521,0 2.561,-0.285 3.105,-0.852c0.543,-0.567 0.819,-1.633 0.819,-3.202l0,-9.026c0,-1.571 -0.276,-2.635 -0.819,-3.202c-0.545,-0.572 -1.584,-0.852 -3.105,-0.852zm0.324,14.051l-12.236,0l0,-11.136l12.236,0l0,11.136z"/>
 </g>
</svg>