<svg width="512" height="512" xmlns="http://www.w3.org/2000/svg">

 <g>
  <title>background</title>
  <rect fill="none" id="canvas_background" height="402" width="582" y="-1" x="-1"/>
 </g>
 <g>
  <title>Layer 1</title>
  <path fill="#016682" id="svg_2" fill-rule="evenodd" clip-rule="evenodd" d="m160.509,160.964l0,0c-14.75,14.724 -25.346,32.028 -31.784,50.447l-0.055,0.108l-0.516,1.521l0,0.027l-0.516,1.549l-0.028,0.08l-0.461,1.468l-0.054,0.191l-0.407,1.358l-0.109,0.298l-0.217,0.814l-0.135,0.463l-0.109,0.379l-0.246,0.843l-0.081,0.326l-0.135,0.49l-0.218,0.842l-0.054,0.244l-0.028,0.08l-0.298,1.223l-0.028,0.138l-0.053,0.135l-0.163,0.679l-0.191,0.843l0,0.054l-0.189,0.789l-0.191,0.787l0,0.055l-0.19,0.842l-0.135,0.68l-0.028,0.163l-0.163,0.843l-0.135,0.596l-0.028,0.246l-0.162,0.84l-0.109,0.49l-0.054,0.381l-0.137,0.842l-0.081,0.381l-0.083,0.462l-0.135,0.843l-0.028,0.27l-0.107,0.572l-0.109,0.869l-0.028,0.162l-0.109,0.68l-0.109,0.842l0,0.081l-0.218,1.604l0,0.025l-0.107,0.871l-0.083,0.705l0,0.137l-0.081,0.84l-0.083,0.627l0,0.244l-0.081,0.842l-0.055,0.517l-0.028,0.353l-0.055,0.842l-0.026,0.408l-0.055,0.463l-0.054,1.166l-0.028,0.545l-0.054,0.842l0,0.218c-0.081,1.358 -0.135,2.716 -0.135,4.074l-0.026,0.761l0,0.082l0,0.868l0,0.653l0,1.63l0,0.298l0.026,1.305l0.028,0.406c0.868,33.145 13.99,66.07 39.282,91.361c28.334,28.334 67.4,42.408 107.198,38.82c31.622,-3.042 60.311,-16.3 82.831,-38.794c26.242,-26.242 39.364,-60.636 39.364,-95.026c0,-3.75 -0.163,-7.498 -0.462,-11.248c-0.108,-0.299 -0.245,-2.553 -0.3,-3.069c-0.407,-3.286 -0.813,-6.493 -1.412,-9.753c-0.19,-1.086 -0.407,-2.172 -0.625,-3.287c-0.542,-2.607 -1.169,-5.188 -1.848,-7.77l-0.106,-0.381l-0.327,-1.195c-0.3,-1.031 -0.624,-2.063 -0.925,-3.097l-0.055,-0.189l-0.434,-1.358l-0.027,-0.109l-0.488,-1.439l0,-0.027l-0.518,-1.467l-0.025,-0.055l-0.49,-1.412l-0.055,-0.137l-0.487,-1.33l-0.055,-0.191l-0.489,-1.275l-0.109,-0.244l-0.025,-0.055c-0.381,-1.006 -0.789,-1.984 -1.197,-2.988l-0.461,-1.033l-0.189,-0.461l-0.436,-0.979l0,0l-0.597,-1.332l-0.028,-0.08l-0.299,-0.625l-0.381,-0.815l-0.298,-0.651l-0.381,-0.762l-0.353,-0.733l-0.137,-0.298l-0.597,-1.169l-0.326,-0.597l-0.436,-0.87l-0.081,-0.136c-0.679,-1.303 -1.386,-2.58 -2.119,-3.885l-0.189,-0.326l-0.191,-0.326l-0.65,-1.113l-0.138,-0.245l-0.705,-1.194l-0.136,-0.164l-0.762,-1.249l-0.842,-1.332l-0.026,-0.081l-0.054,-0.055l-0.871,-1.331l0,0l-0.896,-1.33l-0.026,-0.083l-0.87,-1.221l-0.081,-0.137l-0.843,-1.195l-0.135,-0.189l-0.787,-1.114l-0.218,-0.244l-0.762,-1.033l-0.244,-0.325l-0.733,-0.979l-0.299,-0.381l-0.054,-0.081c-1.006,-1.277 -2.011,-2.554 -3.071,-3.802l-0.135,-0.164c-2.527,-3.043 -5.215,-5.95 -8.068,-8.802c-26.242,-26.244 -60.636,-39.364 -95,-39.364c-27.302,0 -54.632,8.286 -77.832,24.83l-0.244,0.163l-1.088,0.788l-0.272,0.189l-0.407,0.3l-0.651,0.487l-0.3,0.246l-0.353,0.244l-0.679,0.516l-0.326,0.244l-0.327,0.271l-2.335,1.848l-0.244,0.219l-1.06,0.867l-0.218,0.191l-1.086,0.924l-0.191,0.163l-1.113,0.951l-0.137,0.135l-1.141,1.005l-0.109,0.109l-1.168,1.061l-0.081,0.08l-0.625,0.57l-0.544,0.544l-0.054,0.055l-1.113,1.06l-0.082,0.081l-0.026,0.026l-0.599,0.598l-0.595,0.594zm207.091,9.372c19.288,25.211 28.959,55.419 28.959,85.629c0,22.764 -5.487,45.502 -16.436,66.122l-0.027,0.081c-1.25,2.363 -2.58,4.673 -3.967,6.982l-0.08,0.137l-0.842,1.33l-0.029,0.055l-0.896,1.412l-0.025,0.027l-0.871,1.359l-0.08,0.107l-0.843,1.276l-0.136,0.191l-0.815,1.194l-0.189,0.244l-0.762,1.115l-0.026,0.025l-0.787,1.114l-0.164,0.218l-0.298,0.407l-0.707,0.951l-0.353,0.462l-0.653,0.869l-0.433,0.543l-0.6,0.787l-0.489,0.625l-0.026,0l-1.031,1.277l-0.082,0.109l-0.488,0.625l-0.652,0.762l-0.055,0.08l-0.951,1.114l-0.135,0.163l-0.381,0.462l-0.814,0.896l-0.326,0.379l-0.871,0.979l-0.27,0.298l-0.951,1.032l-0.191,0.217l-1.032,1.115l-0.135,0.135l-1.143,1.168l-0.054,0.055l-1.222,1.224l-0.57,0.57l-0.544,0.542l-0.189,0.191l-0.381,0.381l-0.57,0.542c-1.521,1.44 -3.07,2.853 -4.619,4.212l-0.598,0.516c-22.248,19.288 -49.09,30.454 -76.664,33.496l0,47.786l0.218,0l0.76,-0.083l1.006,-0.08l0.489,-0.055l0.516,-0.055l1.006,-0.108l0.978,-0.081l1.005,-0.137l1.739,-0.189l0.244,-0.028l1.005,-0.135l0.788,-0.109l0.189,-0.026l1.006,-0.137l0.544,-0.08l0.462,-0.055l0.977,-0.163l0.788,-0.108l0.218,-0.027l0.979,-0.163l1.003,-0.163l0.028,0l0.951,-0.163l0.978,-0.189l0.326,-0.055l0.68,-0.108l0.977,-0.191l0.57,-0.108l0.409,-0.081l1.819,-0.381l0.164,-0.026l0.977,-0.191l0.978,-0.217l0.109,-0.026l0.87,-0.189l0.978,-0.218l0.353,-0.083l0.082,-0.026l1.521,-0.353l0.026,0l0.599,-0.163l0.381,-0.082l0.978,-0.244l0.842,-0.218l0.136,-0.026l1.928,-0.518l0.137,-0.026l2.201,-0.625l0.597,-0.163l0.951,-0.271l0.625,-0.189l2.2,-0.653l0.082,-0.026l1.929,-0.624l0.163,-0.055c5.08,-1.63 10.079,-3.479 15.051,-5.569l0,0c9.183,-3.857 18.119,-8.476 26.731,-13.855l0,0c1.982,-1.222 3.938,-2.499 5.895,-3.831l0.299,-0.189c1.168,-0.814 2.309,-1.603 3.477,-2.444l0.083,-0.055c1.929,-1.386 3.829,-2.799 5.705,-4.266l0.189,-0.135l1.685,-1.332l0,0l0.842,-0.651l0.843,-0.679l0.189,-0.163l0.054,-0.055l1.413,-1.169l0.381,-0.298l0.462,-0.381l0.815,-0.707l0.542,-0.462l0.272,-0.243l0.813,-0.707l0.734,-0.625l0.082,-0.081l0.163,-0.137l1.468,-1.304l0.08,-0.081l0.707,-0.653l0.814,-0.732l0.271,-0.244l0.517,-0.49l0.788,-0.76l0.461,-0.406l0.354,-0.355l1.358,-1.303l0.026,-0.055l0.19,-0.163l0.76,-0.76l0.789,-0.788c1.113,-1.086 2.174,-2.201 3.26,-3.315l0.271,-0.298l1.113,-1.195l0.408,-0.436l0.354,-0.352l1.275,-1.441c6.71,-6.682 14.454,-17.767 19.561,-25.727l0.461,-0.76l0.518,-0.842l0.706,-1.143l0.082,-0.135l1.112,-1.875l0.055,-0.054l0.925,-1.604l0.216,-0.352l0.707,-1.276l0.135,-0.245l0.625,-1.115l0.163,-0.27l0.625,-1.169l0.245,-0.462l0.843,-1.575l0.026,-0.083l0.87,-1.628l0.161,-0.354l0.083,-0.135c0.652,-1.25 1.249,-2.499 1.874,-3.776l0.108,-0.244l0.244,-0.489l0.733,-1.576l0.055,-0.08c0.951,-2.066 1.848,-4.158 2.744,-6.223l0,-0.026l0.869,-2.12l0.054,-0.108l0.68,-1.685l0.108,-0.354l0.109,-0.243c0.815,-2.065 1.575,-4.129 2.282,-6.194l0.055,-0.109c0.978,-2.852 1.9,-5.704 2.771,-8.584c0.869,-2.879 1.656,-5.867 2.364,-8.802l0.516,-2.2c2.689,-11.898 4.318,-23.635 4.754,-35.832l0,-0.082l0.054,-1.739l0,-0.519l0.055,-1.33l0,-0.951l0,-0.869l0.028,-1.385l0,-0.436l-0.028,-1.82l0,-0.027l-0.026,-1.82l-0.028,-0.406c-0.679,-28.173 -7.552,-55.854 -20.429,-81.119l-56.02,0l0,-0.001zm-234.5,-116.924c-15.976,9.67 -31.079,21.434 -44.908,35.262c-15.458,15.457 -28.306,32.49 -38.577,50.584c-10.214,18.011 -17.874,37.109 -23.008,56.723l36.864,24.45c6.899,-37.571 24.884,-73.512 53.953,-102.553c26.514,-26.515 58.76,-43.819 92.746,-51.888l-27.33,-35.236c-17.223,5.544 -33.93,13.096 -49.74,22.658zm-64.657,178.319c-1.032,8.042 -1.548,16.137 -1.548,24.233c0,48.274 18.418,96.548 55.255,133.359c36.811,36.838 85.086,55.255 133.361,55.255c2.96,0 5.949,-0.08 8.911,-0.216l0,-47.622c-2.962,0.162 -5.95,0.271 -8.911,0.271c-36.104,0 -72.208,-13.773 -99.728,-41.319c-25.918,-25.89 -39.636,-59.386 -41.184,-93.317l-46.156,-30.644zm188.1,-116.788c35.751,0.244 71.42,14.018 98.696,41.293c2.418,2.418 4.728,4.891 6.928,7.443l57.862,0c-8.258,-14.724 -18.635,-28.551 -31.158,-41.074c-36.812,-36.838 -85.085,-55.258 -133.36,-55.258c-11.22,0 -22.468,1.006 -33.551,3.018l34.583,44.578zm40.967,99.022c-10.73,-10.757 -25.59,-17.412 -41.999,-17.412s-31.27,6.655 -42.026,17.412c-10.758,10.73 -17.414,25.591 -17.414,42c0,16.408 6.656,31.268 17.414,42.025c10.757,10.759 25.618,17.414 42.026,17.414s31.268,-6.655 41.999,-17.414c10.758,-10.758 17.414,-25.617 17.414,-42.025c0,-16.409 -6.656,-31.27 -17.414,-42zm-41.999,-24.369c18.309,0 34.909,7.418 46.943,19.426c12.008,12.034 19.424,28.605 19.424,46.943c0,18.337 -7.416,34.936 -19.424,46.943c-12.034,12.007 -28.634,19.451 -46.943,19.451c-18.337,0 -34.937,-7.444 -46.945,-19.451c-12.006,-12.008 -19.45,-28.606 -19.45,-46.943c0,-18.338 7.444,-34.909 19.45,-46.943c12.008,-12.008 28.608,-19.426 46.945,-19.426zm-99.727,-33.36l0.625,-0.625l0.625,-0.624l0.026,-0.028l0.625,-0.596l0.625,-0.6l0.083,-0.08l0.57,-0.544l0.653,-0.599l0.081,-0.08l0.544,-0.516l0.651,-0.6l0.137,-0.108l0.516,-0.462l0.679,-0.598l0.163,-0.135l0.488,-0.436l0.653,-0.57l0.218,-0.189l0.461,-0.381l0.653,-0.57l0.244,-0.218l0.435,-0.353l0.679,-0.544l0.27,-0.218l0.409,-0.324l0.679,-0.545l0.298,-0.271l0.381,-0.271l0.679,-0.543l0.353,-0.271l0.326,-0.271l0.679,-0.517l0.407,-0.298l0.298,-0.218l0.679,-0.517l0.435,-0.326l0.272,-0.189l0.706,-0.518l0.463,-0.324l0.216,-0.164l0.734,-0.488l2.12,-1.468l0.707,-0.489l0.706,-0.462l0.733,-0.489c21.162,-13.745 45.206,-21.243 69.492,-22.492l-33.58,-43.304c-33.904,7.498 -66.177,24.424 -92.53,50.803c-28.795,28.77 -46.318,64.547 -52.62,101.873l44.932,29.801c0.436,-35.508 14.209,-70.932 41.322,-98.044zm102.741,119.722c2.065,-0.462 3.75,-1.438 5.054,-2.935c1.304,-1.521 1.929,-3.314 1.929,-5.377c0,-1.82 -0.544,-3.396 -1.63,-4.729c-1.086,-1.331 -2.854,-2.335 -5.353,-3.042l0,16.083zm-5.976,-43.765c-1.602,0.571 -2.852,1.521 -3.803,2.853c-0.951,1.304 -1.413,2.745 -1.413,4.32c0,1.467 0.434,2.798 1.276,4.046c0.871,1.25 2.174,2.256 3.939,3.018l0,-14.237l0.001,0zm2.962,109.4c1.846,0 3.341,1.493 3.341,3.341s-1.495,3.342 -3.341,3.342c-25.51,0 -48.573,-10.35 -65.282,-27.031c-16.679,-16.707 -27.03,-39.797 -27.03,-65.254c0,-1.846 1.521,-3.367 3.341,-3.367c1.848,0 3.343,1.521 3.343,3.342c0,23.66 9.59,45.068 25.074,60.553c15.485,15.484 36.919,25.074 60.554,25.074zm0,-171.231c-1.848,0 -3.343,-1.521 -3.343,-3.341c0,-1.848 1.495,-3.342 3.343,-3.342c25.481,0 48.573,10.324 65.254,27.031c16.707,16.68 27.029,39.771 27.029,65.254c0,1.848 -1.494,3.341 -3.314,3.341c-1.848,0 -3.341,-1.493 -3.341,-3.341c0,-23.635 -9.59,-45.043 -25.102,-60.527c-15.485,-15.511 -36.891,-25.075 -60.526,-25.075zm-29.665,-135.749c4.808,-0.951 2.906,-7.389 -0.897,-6.629l-6.71,1.005c-4.564,0.923 -2.962,7.39 1.114,6.575c2.118,-0.38 4.346,-0.652 6.493,-0.951zm26.216,-1.957c4.292,0 4.373,-6.655 -0.109,-6.655l-6.765,0.189c-4.183,0 -4.292,6.685 0.298,6.685l6.576,-0.219zm26.268,1.141c3.559,0.707 5.732,-5.621 0.679,-6.627l-6.765,-0.599c-4.997,0 -4.264,6.655 -0.461,6.655l6.547,0.571zm25.943,4.212c4.51,0.896 5.597,-5.704 1.468,-6.521c-2.173,-0.434 -4.51,-0.895 -6.656,-1.385c-1.63,-0.326 -3.178,0.68 -3.693,1.982c-0.843,2.12 0.461,4.184 2.472,4.591c2.146,0.382 4.292,0.898 6.409,1.333zm25.293,7.2c3.831,1.521 6.548,-4.564 2.201,-6.304l-6.439,-2.146c-3.505,-1.413 -6.656,4.51 -1.983,6.383l6.221,2.067zm24.26,10.16c4.619,1.846 6.465,-4.593 2.906,-6.006c-2.01,-0.977 -4.074,-1.982 -6.111,-2.879c-4.43,-1.766 -6.493,4.592 -2.745,6.086c1.983,0.842 4.02,1.848 5.95,2.799zm22.873,12.957c3.994,2.391 7.172,-3.505 3.613,-5.623l-5.73,-3.586c-3.805,-2.281 -7.2,3.478 -3.452,5.704l5.569,3.505zm21.192,15.567c3.83,2.853 7.47,-2.743 4.237,-5.162l-5.27,-4.236c-3.613,-2.717 -7.498,2.716 -4.103,5.27c1.739,1.33 3.45,2.714 5.136,4.128zm19.233,17.929c3.232,3.234 7.796,-1.631 4.808,-4.619l-4.728,-4.834c-3.097,-3.07 -7.822,1.656 -4.699,4.754l4.619,4.699zm17.005,20.049c1.061,1.413 3.261,1.792 4.673,0.652c1.467,-1.115 1.768,-3.207 0.653,-4.674c-1.332,-1.819 -2.745,-3.613 -4.157,-5.35c-2.31,-3.098 -7.742,-0.055 -5.324,3.992c1.384,1.822 2.797,3.56 4.155,5.38zm14.535,21.897c2.335,3.857 7.987,0.326 5.787,-3.369l-3.506,-5.813c-2.201,-3.64 -7.986,-0.327 -5.65,3.559l3.369,5.623zm11.872,23.471c1.548,3.885 7.823,1.575 6.112,-2.662c-0.896,-2.065 -1.82,-4.157 -2.771,-6.194c-1.521,-3.75 -7.77,-1.44 -6.113,2.689c0.896,2.065 1.876,4.075 2.772,6.167zm8.964,24.695c1.901,4.754 7.77,1.493 6.411,-1.93c-0.65,-2.146 -1.304,-4.318 -2.037,-6.465c-1.819,-4.51 -7.796,-1.521 -6.329,2.146c0.705,2.065 1.358,4.157 1.955,6.249zm6.03,25.589c0.897,4.51 7.39,2.988 6.575,-1.141c-0.381,-2.227 -0.815,-4.455 -1.249,-6.656c-0.843,-4.184 -7.443,-3.068 -6.547,1.332c0.434,2.147 0.869,4.319 1.221,6.465zm2.99,26.135c0,3.966 6.655,4.428 6.655,-0.326c-0.135,-2.229 -0.218,-4.619 -0.488,-6.818c0,-3.232 -5.678,-4.754 -6.629,-0.029c-0.027,2.255 0.326,4.865 0.462,7.173zm-0.11,26.297c0,4.889 6.656,4.318 6.656,0.407l0.326,-6.765c0,-4.673 -6.683,-4.347 -6.683,-0.218l-0.299,6.576zm-3.178,26.079c-0.843,4.266 5.705,5.569 6.575,1.277c0.407,-2.229 0.76,-4.51 1.112,-6.765c0.816,-4.048 -5.84,-5.541 -6.602,-1.006c-0.323,2.176 -0.677,4.349 -1.085,6.494zm-6.194,25.591c-1.493,3.668 4.673,6.195 6.223,2.364c0.788,-2.12 1.467,-4.755 2.037,-6.956c0.978,-4.862 -5.679,-5.514 -6.438,-1.737l-1.822,6.329zm-9.183,24.641c-1.737,4.292 4.564,6.52 6.113,2.634l2.636,-6.221c1.656,-4.103 -4.563,-6.547 -6.194,-2.499l-2.555,6.086zm-12.034,23.335c-2.227,3.749 3.478,7.199 5.759,3.423l3.369,-5.896c2.201,-3.694 -3.667,-6.899 -5.787,-3.313l-3.341,5.786zm-14.696,21.789c-2.689,3.585 2.717,7.524 5.296,4.074l4.049,-5.46c2.553,-3.424 -2.743,-7.445 -5.433,-3.887l-3.912,5.273zm-17.17,19.939c-0.516,0.516 -0.923,1.412 -0.923,2.229c0,3.123 3.585,4.562 5.731,2.39l4.646,-4.917c2.934,-2.962 -1.875,-7.58 -4.809,-4.646l-4.645,4.944zm-19.369,17.793c-3.314,3.314 0.843,7.716 4.264,5.162l5.163,-4.374c3.504,-3.505 -1.685,-7.742 -4.401,-5.026l-5.026,4.238zm-21.299,15.405c-3.613,2.172 -0.244,7.931 3.504,5.676c1.957,-1.194 3.831,-2.581 5.76,-3.775c3.478,-2.608 0.108,-7.852 -3.776,-5.516c-1.658,1.251 -3.75,2.5 -5.488,3.615zm-22.982,12.793c-3.667,1.441 -1.575,7.799 2.906,5.978c2.011,-0.951 4.157,-1.955 6.086,-3.015c4.156,-2.499 0.271,-7.934 -3.124,-5.896l-5.868,2.933zm-24.314,9.945c-4.483,1.792 -1.521,7.797 2.173,6.33c2.119,-0.708 4.266,-1.521 6.357,-2.31c4.237,-1.685 1.575,-7.797 -2.338,-6.249c-2.037,0.762 -4.128,1.576 -6.192,2.229zm-25.347,7.035c-4.129,0.815 -3.043,7.417 1.44,6.521c2.201,-0.462 4.401,-0.978 6.602,-1.521c1.305,-0.271 2.499,-1.656 2.499,-3.097c0,-2.281 -1.819,-3.831 -4.129,-3.369c-2.12,0.543 -4.266,1.004 -6.412,1.466zm-25.97,3.994c-4.43,0.896 -3.859,6.655 0.624,6.655c2.227,-0.163 4.51,-0.461 6.736,-0.733c4.919,-0.978 2.908,-7.361 -0.842,-6.628c-2.146,0.27 -4.346,0.542 -6.518,0.706zm-26.297,0.95c-4.538,0 -4.375,6.683 -0.109,6.683c2.227,0.028 4.536,0.108 6.764,0.055c4.318,0 4.401,-6.683 -0.054,-6.683c-2.146,0.081 -4.429,0 -6.601,-0.055zm-26.189,-2.119c-4.021,-0.814 -5.405,5.706 -1.25,6.547c2.255,0.409 4.755,0.626 7.037,0.896c3.722,0.762 5.624,-5.65 0.733,-6.628l-6.52,-0.815zm-25.782,-5.189c-4.808,-0.977 -5.513,5.679 -1.685,6.44l6.575,1.628c4.536,0.925 5.57,-5.676 1.495,-6.492l-6.385,-1.576zm-24.992,-8.204c-1.765,-0.707 -3.667,0.272 -4.292,1.82c-0.733,1.875 0.217,3.749 1.874,4.4l6.331,2.392c3.938,1.576 6.438,-4.592 2.281,-6.276c-2.011,-0.788 -4.129,-1.521 -6.194,-2.336zm-23.825,-11.083c-3.45,-2.039 -7.28,3.422 -3.151,5.895l6.003,3.123c4.701,1.876 6.44,-4.59 2.962,-5.977c-1.929,-0.949 -3.911,-2.008 -5.814,-3.041zm-22.385,-13.829c-3.369,-2.525 -7.416,2.772 -3.803,5.489c1.846,1.275 3.722,2.607 5.596,3.802c4.048,2.445 7.144,-3.478 3.639,-5.569l-5.432,-3.722zm-20.566,-16.354c-1.167,-1.167 -3.367,-1.058 -4.536,0.083c-1.44,1.438 -1.332,3.478 0.081,4.917l5.134,4.429c3.423,2.579 7.552,-1.848 4.294,-5.108c-1.684,-1.413 -3.342,-2.853 -4.973,-4.321zm-18.555,-18.661c-3.422,-3.424 -7.742,1.683 -4.971,4.455c1.495,1.683 3.017,3.367 4.564,4.997c3.289,3.287 7.796,-1.63 4.863,-4.59l-4.456,-4.862zm-16.217,-20.676c-2.825,-3.748 -7.933,0.545 -5.487,3.832c1.276,1.848 2.608,3.695 3.938,5.486c2.69,3.587 7.987,-0.487 5.38,-3.965c-1.304,-1.765 -2.581,-3.533 -3.831,-5.353zm-13.692,-22.44c-2.473,-4.129 -7.932,-0.27 -5.894,3.152c1.058,1.982 2.146,3.967 3.287,5.922c2.335,3.939 7.959,0.326 5.787,-3.314c-1.088,-1.875 -2.175,-3.829 -3.18,-5.76zm-10.92,-23.904c-1.658,-4.157 -7.824,-1.604 -6.222,2.416c0.816,2.119 1.658,4.211 2.527,6.276c1.576,3.938 7.851,1.63 6.166,-2.608c-0.869,-2.01 -1.683,-4.047 -2.471,-6.084zm-8.042,-25.049c-0.814,-4.021 -7.335,-2.717 -6.466,1.684c0.572,2.174 1.143,4.375 1.793,6.547c1.685,4.212 7.281,2.473 6.412,-1.873l-1.739,-6.358zm-5.025,-25.781c-0.978,-4.834 -7.389,-2.934 -6.602,0.896c0.272,2.229 0.625,4.483 1.005,6.71c0.897,4.564 7.39,2.935 6.574,-1.112c-0.379,-2.146 -0.679,-4.346 -0.977,-6.494zm218.362,-10.676l0,-17.169c-5.324,-1.55 -9.237,-3.858 -11.736,-6.954c-2.499,-3.098 -3.748,-6.873 -3.748,-11.303c0,-4.48 1.413,-8.258 4.238,-11.3c2.825,-3.071 6.573,-4.808 11.246,-5.271l0,-4.046l5.976,0l0,4.046c4.375,0.518 7.852,2.011 10.46,4.455c2.58,2.446 4.238,5.733 4.943,9.835l-10.432,1.359c-0.651,-3.232 -2.31,-5.406 -4.972,-6.576l0,16.028c6.602,1.794 11.111,4.103 13.503,6.928c2.391,2.825 3.585,6.438 3.585,10.894c0,4.945 -1.493,9.102 -4.51,12.498c-3.015,3.395 -7.197,5.486 -12.578,6.357l0,7.633l-5.976,0l0,-7.553c-4.699,-0.598 -8.53,-2.336 -11.492,-5.243c-2.96,-2.935 -4.834,-7.091 -5.677,-12.441l10.704,-1.251c0.433,2.174 1.249,4.049 2.471,5.652c1.198,1.575 2.529,2.717 3.995,3.422z"/>
 </g>
</svg>