<svg width="153" height="153" xmlns="http://www.w3.org/2000/svg">

 <g>
  <title>background</title>
  <rect fill="none" id="canvas_background" height="402" width="582" y="-1" x="-1"/>
 </g>
 <g>
  <title>Layer 1</title>
  <path id="svg_2" fill="#016682" d="m152.5,122.40649c0,16.789 -13.611,30.4 -30.399,30.4l-91.2,0c-16.789,0 -30.4,-13.611 -30.4,-30.4l0,-91.2c0,-16.79 13.611,-30.4 30.4,-30.4l91.199,0c16.788,0 30.399,13.61 30.399,30.399l0,91.201l0.001,0z"/>
  <path id="svg_3" fill="#FFFFFF" d="m127.208,87.663c-3.248,-2.511 -6.496,-5.021 -9.745,-7.53c0.215,-2.396 0.227,-4.823 0.011,-7.256c3.247,-2.509 6.494,-5.017 9.742,-7.525c4.298,-3.322 2.674,-5.859 0.871,-10.212c-1.802,-4.353 -2.448,-7.295 -7.837,-6.604c-4.07,0.522 -8.14,1.045 -12.209,1.567c-1.568,-1.874 -3.293,-3.581 -5.139,-5.124c0.001,-0.003 0.003,-0.006 0.004,-0.009c0.522,-4.075 1.045,-8.149 1.567,-12.225c0.691,-5.39 -2.251,-6.035 -6.604,-7.838c-4.352,-1.802 -6.89,-3.427 -10.211,0.873c-2.512,3.251 -5.023,6.502 -7.535,9.752c-0.002,0.004 -0.003,0.008 -0.005,0.013c-2.391,-0.213 -4.813,-0.226 -7.241,-0.01c0,-0.001 -0.001,-0.002 -0.001,-0.003c-2.512,-3.25 -5.022,-6.501 -7.534,-9.752c-3.322,-4.3 -5.859,-2.676 -10.212,-0.873s-7.295,2.448 -6.604,7.838c0.522,4.075 1.046,8.149 1.568,12.225c0,0.001 0.001,0.001 0.001,0.002c-1.872,1.566 -3.577,3.29 -5.118,5.134c-0.001,0 -0.001,-0.001 -0.002,-0.001c-4.075,-0.522 -8.149,-1.047 -12.225,-1.569c-5.39,-0.691 -6.035,2.25 -7.838,6.604c-1.803,4.352 -3.427,6.89 0.873,10.211c3.251,2.512 6.502,5.023 9.752,7.535c0.002,0.001 0.003,0.001 0.005,0.002c-0.214,2.393 -0.226,4.817 -0.01,7.247c-3.246,2.51 -6.495,5.019 -9.741,7.526c-4.3,3.323 -2.677,5.858 -0.873,10.213c1.802,4.351 2.448,7.295 7.837,6.602c4.069,-0.521 8.142,-1.044 12.211,-1.565c1.565,1.87 3.287,3.575 5.13,5.115c-0.001,0.002 -0.002,0.003 -0.002,0.004c-0.522,4.074 -1.046,8.15 -1.568,12.225c-0.691,5.389 2.251,6.033 6.604,7.838c4.352,1.803 6.89,3.426 10.211,-0.873c2.512,-3.25 5.023,-6.503 7.534,-9.753c2.396,0.214 4.823,0.227 7.257,0.011c2.509,3.248 5.017,6.496 7.525,9.742c3.322,4.299 5.859,2.676 10.212,0.873c4.352,-1.803 7.295,-2.447 6.604,-7.838c-0.521,-4.069 -1.045,-8.141 -1.566,-12.211c1.872,-1.566 3.578,-3.29 5.12,-5.134c4.07,0.522 8.145,1.045 12.217,1.568c5.389,0.691 6.035,-2.251 7.837,-6.604c1.803,-4.353 3.429,-6.89 -0.873,-10.211zm-72.297,-2.212c-4.939,-11.926 0.724,-25.598 12.648,-30.537s25.597,0.723 30.536,12.648s-0.723,25.597 -12.648,30.536c-11.925,4.94 -25.596,-0.723 -30.536,-12.647z"/>
 </g>
</svg>